<?xml version="1.0" encoding="UTF-8"?>
<svg id="Layer_1" data-name="Layer 1" xmlns="http://www.w3.org/2000/svg" xmlns:xlink="http://www.w3.org/1999/xlink" viewBox="0 0 702.99 744.01">
  <defs>
    <style>
      .cls-1 {
        fill: url(#linear-gradient);
        fill-rule: evenodd;
        stroke-width: 0px;
      }
    </style>
    <linearGradient id="linear-gradient" x1="-17.96" y1="-3560.95" x2="702.49" y2="-2840.5" gradientTransform="translate(0 -2880.86) scale(1 -1)" gradientUnits="userSpaceOnUse">
      <stop offset=".19" stop-color="#ea090f"/>
      <stop offset=".27" stop-color="#e90b15"/>
      <stop offset=".37" stop-color="#e91127"/>
      <stop offset=".5" stop-color="#e81b46"/>
      <stop offset=".63" stop-color="#e62970"/>
      <stop offset=".78" stop-color="#e43aa5"/>
      <stop offset=".91" stop-color="#e34ddd"/>
    </linearGradient>
  </defs>
  <path class="cls-1" d="M268.05,0L0,123.97l25.24,398.55L268.05,0ZM677.76,522.52L434.95,0l268.05,123.97-25.24,398.55ZM205.21,549.06h292.18l37.3,90.39-183.39,104.56-183.39-104.56,37.3-90.39ZM469.76,411.06c-81.46-15.58-133.43-15.21-236.29,0v26.23h236.29v-26.23ZM240.44,393.47c90.22-13.1,142.41-15.56,221.97-.41,4.13-4.08,15.58-15.51,19.16-20.44-43.67-30.71-113.34-41.09-173-40.91-29.81.09-57.02,2.81-77.11,6.91-10.05,2.05-18.26,4.43-24.11,6.97-2.93,1.27-5.21,2.56-6.83,3.84-1.4,1.11-2.21,2.13-2.57,3.02,4.81,10.77,18.7,21.92,37.12,36.72,1.75,1.4,3.54,2.84,5.36,4.31ZM480.61,341.91c-83.87-59.69-255.22-38.89-274.16-23.52-7.6,7.94-9.77,14.97-7.82,22.03.57-.68,1.27-1.33,2.05-1.95,1.87-1.47,4.38-2.87,7.42-4.19,6.09-2.65,14.51-5.08,24.65-7.14,20.29-4.14,47.69-6.87,77.64-6.96,59.69-.18,129.91,10.16,174.31,41.23,1.6-4.17,3.36-11.38-4.09-19.48Z"/>
</svg>