<?xml version="1.0" encoding="UTF-8" standalone="no"?><!DOCTYPE svg PUBLIC "-//W3C//DTD SVG 1.1//EN" "http://www.w3.org/Graphics/SVG/1.1/DTD/svg11.dtd"><svg width="100%" height="100%" viewBox="0 0 1000 1000" version="1.1" xmlns="http://www.w3.org/2000/svg" xmlns:xlink="http://www.w3.org/1999/xlink" xml:space="preserve" style="fill-rule:evenodd;clip-rule:evenodd;stroke-linejoin:round;stroke-miterlimit:1.41421;"><g><path d="M500.205,61.459l429.71,153.439l-65.68,568.408l-364.03,201.418l-364.303,-201.418l-65.73,-568.408l430.033,-153.439Z" style="fill:#fd743e;"/><path d="M500.205,61.459l429.71,153.439l-65.68,568.408l-364.03,201.418l0,-201.418l0,-469.148l0,-252.699Z" style="fill:#df5a26;"/></g><g><path d="M500.369,163.459l42.001,94.862l-210.406,507.922l-100.156,0l268.561,-602.784Z" style="fill:#fff;"/><path d="M500.233,162.288l-42,94.862l132.184,321.581l108.364,29.196l-198.548,-445.639Z" style="fill:#fff;"/><path d="M791.872,752.766l-377.899,-104.853l30.655,-76.454l358.601,98.462l-11.357,82.845Z" style="fill:#fff;"/></g></svg>